<?xml version="1.0" encoding="UTF-8" standalone="no"?>
<svg
   xmlns:dc="http://purl.org/dc/elements/1.1/"
   xmlns:cc="http://creativecommons.org/ns#"
   xmlns:rdf="http://www.w3.org/1999/02/22-rdf-syntax-ns#"
   xmlns:svg="http://www.w3.org/2000/svg"
   xmlns="http://www.w3.org/2000/svg"
   xmlns:xlink="http://www.w3.org/1999/xlink"
   xmlns:sodipodi="http://sodipodi.sourceforge.net/DTD/sodipodi-0.dtd"
   xmlns:inkscape="http://www.inkscape.org/namespaces/inkscape"
   inkscape:version="1.0 (4035a4f, 2020-05-01)"
   sodipodi:docname="The-Graph-GRT-Icon-White.svg"
   id="svg840"
   version="1.1"
   viewBox="0 0 256 256"
   height="256"
   width="256">
  <metadata
     id="metadata846">
    <rdf:RDF>
      <cc:Work
         rdf:about="">
        <dc:format>image/svg+xml</dc:format>
        <dc:type
           rdf:resource="http://purl.org/dc/dcmitype/StillImage" />
        <dc:title>Fill 19</dc:title>
      </cc:Work>
    </rdf:RDF>
  </metadata>
  <defs
     id="defs844">
    <linearGradient
       id="linearGradient859"
       inkscape:collect="always">
      <stop
         id="stop855"
         offset="0"
         style="stop-color:#000080;stop-opacity:1" />
      <stop
         id="stop857"
         offset="1"
         style="stop-color:#00ffff;stop-opacity:1" />
    </linearGradient>
    <linearGradient
       y2="27.861538"
       x2="21.7777"
       y1="-0.11982768"
       x1="0.25828952"
       gradientUnits="userSpaceOnUse"
       id="linearGradient871"
       xlink:href="#linearGradient859"
       inkscape:collect="always" />
    <linearGradient
       gradientUnits="userSpaceOnUse"
       y2="14"
       x2="21.7777"
       y1="14"
       x1="0"
       id="linearGradient877"
       xlink:href="#linearGradient859"
       inkscape:collect="always" />
  </defs>
  <sodipodi:namedview
     inkscape:current-layer="g853"
     inkscape:window-maximized="1"
     inkscape:window-y="0"
     inkscape:window-x="0"
     inkscape:cy="116.60556"
     inkscape:cx="104.41724"
     inkscape:zoom="1.837381"
     fit-margin-bottom="0"
     fit-margin-right="0"
     fit-margin-left="0"
     fit-margin-top="0"
     showgrid="false"
     id="namedview842"
     inkscape:window-height="878"
     inkscape:window-width="1440"
     inkscape:pageshadow="2"
     inkscape:pageopacity="0"
     guidetolerance="10"
     gridtolerance="10"
     objecttolerance="10"
     borderopacity="1"
     bordercolor="#666666"
     pagecolor="#ffffff" />
  <!-- Generator: Sketch 52.4 (67378) - http://www.bohemiancoding.com/sketch -->
  <title
     id="title833">Fill 19</title>
  <circle
     r="128"
     cy="128"
     cx="128"
     id="path848"
     style="opacity:0.98;fill:#000000;fill-rule:evenodd;stroke:none;stroke-width:89.4397" />
  <desc
     id="desc835">Created with Sketch.</desc>
  <g
     style="display:inline;fill:url(#linearGradient871);fill-opacity:1"
     transform="matrix(6.3214286,0,0,6.3214286,58.078406,46.575288)"
     id="g853">
    <g
       style="mix-blend-mode:normal;fill:url(#linearGradient877);fill-opacity:1"
       id="Symbols"
       stroke="none"
       stroke-width="1"
       fill="none"
       fill-rule="evenodd">
      <g
         style="fill:url(#linearGradient877);fill-opacity:1"
         id="Menu-/-not-signed-in"
         transform="translate(-88,-52)"
         fill="#ffffff">
        <path
           style="fill:url(#linearGradient877);fill-opacity:1"
           d="m 97.333302,67.555503 c -3.436352,0 -6.222201,-2.785661 -6.222201,-6.222201 0,-3.436541 2.785849,-6.222201 6.222201,-6.222201 3.436538,0 6.222198,2.78566 6.222198,6.222201 0,3.43654 -2.78566,6.222201 -6.222198,6.222201 m 0,-15.555503 c 5.154618,0 9.333298,4.178679 9.333298,9.333302 0,5.154622 -4.17868,9.333302 -9.333298,9.333302 C 92.178679,70.666604 88,66.487924 88,61.333302 88,56.178679 92.178679,52 97.333302,52 Z m 8.877758,19.122144 c 0.60752,0.607514 0.60752,1.592318 0,2.199831 l -6.222387,6.22239 c -0.607513,0.607513 -1.592317,0.607513 -2.199831,0 -0.607513,-0.607513 -0.607513,-1.592318 0,-2.199831 l 6.222388,-6.22239 c 0.60752,-0.607513 1.59232,-0.607513 2.19983,0 z M 109.7777,53.55555 c 0,0.85923 -0.69632,1.555551 -1.55536,1.555551 -0.85923,0 -1.55555,-0.696321 -1.55555,-1.555551 0,-0.859229 0.69632,-1.55555 1.55555,-1.55555 0.85904,0 1.55536,0.696321 1.55536,1.55555 z"
           id="Fill-19" />
      </g>
    </g>
  </g>
</svg>
